<svg width="32" height="32" viewBox="0 0 32 32" fill="none" xmlns="http://www.w3.org/2000/svg">
<path fill-rule="evenodd" clip-rule="evenodd" d="M15.87 5.66785C9.95543 5.66785 4.95935 9.30208 4.95935 13.6029C4.95935 13.9157 5.18153 14.1696 5.45529 14.1696C5.72905 14.1696 5.95123 13.9157 5.95123 13.6029C5.95123 9.97996 10.5863 6.80143 15.87 6.80143C16.1427 6.80143 16.3659 6.54751 16.3659 6.23464C16.3659 5.92177 16.1437 5.66785 15.87 5.66785Z" fill="white"/>
<path fill-rule="evenodd" clip-rule="evenodd" d="M15.87 0C7.1048 0 0 6.09068 0 13.6029C0 18.2811 2.75642 22.4062 6.95106 24.8547C6.95106 24.8853 6.94312 24.9057 6.94312 24.9386C6.94312 26.9711 5.615 29.1589 5.03079 30.3072H5.03277C4.98616 30.4319 4.95937 30.569 4.95937 30.713C4.95937 31.2798 5.36108 31.74 5.85801 31.74C5.95125 31.74 6.11491 31.7117 6.11094 31.7241C9.21055 31.1437 12.1306 27.8893 12.8091 26.9461C13.8 27.1128 14.8216 27.2057 15.87 27.2057C24.6332 27.2057 31.74 21.115 31.74 13.6029C31.74 6.09068 24.6342 0 15.87 0ZM15.87 24.9386C14.9605 24.9386 14.0271 24.8592 13.0967 24.7039C13.0005 24.6858 12.9043 24.6801 12.8091 24.6801C12.2199 24.6801 11.6555 24.9794 11.2756 25.5076C10.8511 26.0982 9.64301 27.4166 8.2157 28.3858C8.60253 27.3712 8.90505 26.2342 8.92588 25.0621C8.93183 24.9896 8.93481 24.9159 8.93481 24.8536C8.93481 24.0011 8.51723 23.2223 7.85367 22.8347C4.17778 20.6899 1.98375 17.2382 1.98375 13.6029C1.98375 7.35234 8.21273 2.26714 15.87 2.26714C23.5253 2.26714 29.7562 7.35234 29.7562 13.6029C29.7562 19.8534 23.5263 24.9386 15.87 24.9386Z" fill="white"/>
</svg>
