<svg width="32" height="32" viewBox="0 0 32 32" fill="none" xmlns="http://www.w3.org/2000/svg">
<path d="M31.582 16.6073C31.2319 17.6142 30.3644 18.265 29.3711 18.265H28.5629V30.8231C28.5629 31.4533 28.089 31.9647 27.5051 31.9647H21.158V23.9732C21.158 20.8257 18.7852 18.265 15.8687 18.265C12.9522 18.265 10.5794 20.8257 10.5794 23.9732V31.9647H4.23234C3.6484 31.9647 3.17449 31.4533 3.17449 30.8231V18.265H2.36523C1.37191 18.265 0.504469 17.6154 0.15432 16.6084C-0.195829 15.6015 0.0612294 14.4941 0.810188 13.7886L13.1648 1.16191C14.6818 -0.387304 17.0567 -0.387304 18.5726 1.16191L30.9568 13.8182C31.6741 14.4929 31.9322 15.6003 31.582 16.6073Z" fill="white"/>
</svg>
