<svg width="32" height="32" viewBox="0 0 32 32" fill="none" xmlns="http://www.w3.org/2000/svg">
<path d="M15.87 19.044C20.2455 19.044 23.7925 14.7809 23.7925 9.522C23.7925 4.26314 20.2455 0 15.87 0C11.4946 0 7.94757 4.26314 7.94757 9.522C7.94757 14.7809 11.4946 19.044 15.87 19.044Z" fill="white"/>
<path d="M31.398 27.1377C29.972 24.2811 27.2783 21.9006 23.7924 20.4723C22.8418 20.1549 21.7326 20.1549 20.9404 20.631C19.3559 21.5832 17.7714 22.0593 15.87 22.0593C13.9686 22.0593 12.3841 21.5832 10.7996 20.631C10.0074 20.3136 8.89825 20.1549 7.94755 20.631C4.46167 22.0593 1.76804 24.4398 0.341999 27.2964C-0.767144 29.3595 0.975795 31.74 3.35253 31.74H28.3875C30.7642 31.74 32.5071 29.3595 31.398 27.1377Z" fill="white"/>
</svg>
